<svg aria-hidden="true" style="position: absolute; width: 0; height: 0; overflow: hidden;" version="1.1" xmlns="http://www.w3.org/2000/svg" xmlns:xlink="http://www.w3.org/1999/xlink">
<defs>
<symbol id="icon-arrow-right" viewBox="0 0 32 32">
<path fill="none" stroke="#fafafa" style="stroke: var(--color1, #fafafa)" stroke-linejoin="round" stroke-linecap="round" stroke-miterlimit="4" stroke-width="2" d="M5.333 16h21.333"></path>
<path fill="none" stroke="#fafafa" style="stroke: var(--color1, #fafafa)" stroke-linejoin="round" stroke-linecap="round" stroke-miterlimit="4" stroke-width="2" d="M18.667 8l8 8-8 8"></path>
</symbol>
<symbol id="icon-arrow-left" viewBox="0 0 32 32">
<path stroke-linejoin="round" stroke-linecap="round" stroke-miterlimit="4" stroke-width="2" d="M26.667 16h-21.333"></path>
<path stroke-linejoin="round" stroke-linecap="round" stroke-miterlimit="4" stroke-width="2" d="M13.333 24l-8-8 8-8"></path>
</symbol>
<symbol id="icon-brush" viewBox="0 0 32 32">
<path fill="none" stroke="#fafafa" style="stroke: var(--color1, #fafafa)" stroke-linejoin="round" stroke-linecap="round" stroke-miterlimit="4" stroke-width="2.6667" d="M17.037 20l-5.037-5.037"></path>
<path fill="none" stroke="#fafafa" style="stroke: var(--color1, #fafafa)" stroke-linejoin="round" stroke-linecap="round" stroke-miterlimit="4" stroke-width="2.6667" d="M2.667 29.333c2.667 0 6.144 0.456 7.966-1.367s1.822-4.777 0-6.6c-1.822-1.822-4.777-1.822-6.6 0s0 5.3-1.367 7.967z"></path>
<path fill="none" stroke="#fafafa" style="stroke: var(--color1, #fafafa)" stroke-linejoin="round" stroke-linecap="round" stroke-miterlimit="4" stroke-width="2.6667" d="M10.667 21.333c-0.655-0.655-0.983-0.983-1.168-1.326-0.444-0.823-0.425-1.818 0.050-2.623 0.198-0.336 0.538-0.651 1.218-1.28l13.157-12.183c1.159-1.073 2.959-1.038 4.075 0.078s1.151 2.917 0.078 4.075l-12.183 13.157c-0.63 0.68-0.944 1.020-1.28 1.218-0.805 0.475-1.8 0.495-2.623 0.050-0.343-0.185-0.671-0.513-1.326-1.168z"></path>
</symbol>
<symbol id="icon-hourglass" viewBox="0 0 32 32">
<path fill="none" stroke="#fafafa" style="stroke: var(--color1, #fafafa)" stroke-linejoin="round" stroke-linecap="round" stroke-miterlimit="4" stroke-width="2.6667" d="M24.217 2.667h-16.434c-0.617 0-1.117 0.5-1.117 1.117 0 3.554 1.412 6.962 3.925 9.475l1.626 1.626c0.161 0.161 0.242 0.242 0.3 0.32 0.352 0.473 0.352 1.121 0 1.594-0.058 0.077-0.139 0.158-0.3 0.32l-1.626 1.626c-2.513 2.513-3.925 5.921-3.925 9.475 0 0.617 0.5 1.117 1.117 1.117h16.434c0.617 0 1.117-0.5 1.117-1.117 0-3.554-1.412-6.962-3.925-9.475l-1.626-1.626c-0.161-0.161-0.242-0.242-0.3-0.32-0.353-0.473-0.353-1.121 0-1.594 0.058-0.077 0.139-0.158 0.3-0.32l1.626-1.626c2.513-2.513 3.925-5.921 3.925-9.475 0-0.617-0.5-1.117-1.117-1.117z"></path>
</symbol>
<symbol id="icon-arrow-up" viewBox="0 0 32 32">
<path fill="none" stroke="#fafafa" style="stroke: var(--color1, #fafafa)" stroke-linejoin="miter" stroke-linecap="butt" stroke-miterlimit="4" stroke-width="3.2" d="M24 20l-8-8-8 8"></path>
</symbol>
<symbol id="icon-arrow-down" viewBox="0 0 32 32">
<path fill="none" stroke="#fafafa" style="stroke: var(--color1, #fafafa)" stroke-linejoin="miter" stroke-linecap="butt" stroke-miterlimit="4" stroke-width="3.2" d="M24 12l-8 8-8-8"></path>
</symbol>
<symbol id="icon-J" viewBox="0 0 32 32">
<path fill="#fafafa" style="fill: var(--color1, #fafafa)" d="M7.829 28.118c-1.393 0-2.643-0.247-3.75-0.74-1.107-0.504-1.985-1.239-2.632-2.204s-0.97-2.138-0.97-3.52v-0.477h3.668v0.477c0 0.669 0.154 1.256 0.461 1.76 0.318 0.504 0.751 0.894 1.299 1.168 0.559 0.263 1.201 0.395 1.924 0.395 0.778 0 1.442-0.165 1.99-0.493s0.965-0.811 1.25-1.447c0.285-0.647 0.428-1.436 0.428-2.368v-17.385h3.668v17.385c0 1.568-0.302 2.911-0.905 4.030-0.592 1.107-1.436 1.957-2.533 2.549-1.097 0.581-2.396 0.872-3.898 0.872zM23.241 17.066l0.23-5.049-4.243 2.747-1.316-2.27 4.506-2.303-4.506-2.303 1.316-2.303 4.243 2.747-0.23-5.049h2.599l-0.23 5.049 4.243-2.747 1.316 2.303-4.507 2.303 4.507 2.303-1.316 2.27-4.243-2.747 0.23 5.049h-2.599z"></path>
</symbol>
<symbol id="icon-jefferson" viewBox="0 0 32 32">
<path fill="#fafafa" style="fill: var(--color1, #fafafa)" d="M27.971 15.579l0.117-2.468-2.156 1.343-0.669-1.109 2.29-1.126-2.29-1.126 0.669-1.126 2.156 1.343-0.117-2.468h1.321l-0.117 2.468 2.157-1.343 0.669 1.126-2.29 1.126 2.29 1.126-0.669 1.109-2.157-1.343 0.117 2.468h-1.321z"></path>
<path fill="#fafafa" style="fill: var(--color1, #fafafa)" d="M23.106 11.579v1.417h-5.422v-1.417h5.422zM19.162 20.632v-10.105c0-0.561 0.132-1.028 0.395-1.401 0.269-0.378 0.619-0.659 1.048-0.842 0.435-0.189 0.902-0.283 1.401-0.283 0.384 0 0.71 0.030 0.98 0.089s0.467 0.111 0.593 0.154l-0.447 1.425c-0.086-0.027-0.198-0.057-0.335-0.089-0.132-0.032-0.298-0.049-0.498-0.049-0.453 0-0.779 0.108-0.98 0.324-0.2 0.211-0.301 0.518-0.301 0.923v9.854h-1.856z"></path>
<path fill="#fafafa" style="fill: var(--color1, #fafafa)" d="M18.054 11.579v1.417h-5.422v-1.417h5.422zM14.11 20.632v-10.105c0-0.561 0.132-1.028 0.395-1.401 0.269-0.378 0.619-0.659 1.048-0.842 0.435-0.189 0.902-0.283 1.401-0.283 0.384 0 0.71 0.030 0.98 0.089s0.467 0.111 0.593 0.154l-0.447 1.425c-0.086-0.027-0.198-0.057-0.335-0.089-0.132-0.032-0.298-0.049-0.498-0.049-0.453 0-0.779 0.108-0.98 0.324-0.2 0.211-0.301 0.518-0.301 0.923v9.854h-1.856z"></path>
<path fill="#fafafa" style="fill: var(--color1, #fafafa)" d="M8.646 20.632c-0.91 0-1.698-0.19-2.363-0.57s-1.179-0.914-1.539-1.604c-0.355-0.695-0.533-1.505-0.533-2.43 0-0.92 0.175-1.73 0.524-2.43 0.355-0.7 0.852-1.246 1.49-1.636 0.643-0.396 1.398-0.593 2.263-0.593 0.527 0 1.037 0.083 1.531 0.249s0.938 0.428 1.331 0.786c0.394 0.358 0.705 0.823 0.932 1.395 0.233 0.572 0.349 1.262 0.349 2.069v0.626h-7.398v-1.307h6.466l-0.84 0.433c0-0.551-0.089-1.037-0.266-1.46s-0.444-0.751-0.799-0.986c-0.349-0.241-0.785-0.361-1.306-0.361s-0.968 0.12-1.34 0.361c-0.366 0.241-0.646 0.559-0.84 0.954s-0.291 0.829-0.291 1.299v0.89c0 0.615 0.111 1.136 0.333 1.564s0.53 0.754 0.924 0.978c0.399 0.225 0.863 0.337 1.39 0.337 0.344 0 0.655-0.048 0.932-0.144 0.283-0.096 0.527-0.241 0.732-0.433s0.361-0.43 0.466-0.714l1.714 0.313c-0.139 0.481-0.383 0.904-0.732 1.267s-0.791 0.647-1.323 0.85c-0.527 0.198-1.129 0.297-1.806 0.297z"></path>
<path fill="#fafafa" style="fill: var(--color1, #fafafa)" d="M1.439 11.506h1.708v9.688c0.005 0.607-0.1 1.12-0.316 1.537s-0.532 0.732-0.949 0.944c-0.416 0.217-0.928 0.325-1.534 0.325h-0.348v-1.521h0.277c0.411 0 0.706-0.111 0.886-0.333s0.271-0.542 0.277-0.96v-9.68zM2.285 10.107c-0.3 0-0.556-0.103-0.767-0.309s-0.316-0.453-0.316-0.74c0-0.293 0.105-0.542 0.316-0.748s0.467-0.309 0.767-0.309c0.295 0 0.548 0.103 0.759 0.309 0.216 0.206 0.324 0.456 0.324 0.748 0 0.287-0.108 0.534-0.324 0.74-0.211 0.206-0.464 0.309-0.759 0.309z"></path>
</symbol>
<symbol id="icon-message-chat" viewBox="0 0 32 32">
<path fill="none" stroke="#fafafa" style="stroke: var(--color1, #fafafa)" stroke-linejoin="round" stroke-linecap="round" stroke-miterlimit="4" stroke-width="2.6667" d="M8.126 14.972c-0.083-0.534-0.126-1.081-0.126-1.638 0-5.891 4.807-10.667 10.737-10.667s10.737 4.776 10.737 10.667c0 1.331-0.245 2.605-0.693 3.779-0.093 0.244-0.14 0.366-0.161 0.461s-0.029 0.161-0.031 0.257c-0.002 0.097 0.011 0.205 0.037 0.42l0.537 4.36c0.058 0.472 0.087 0.708 0.009 0.88-0.069 0.15-0.191 0.27-0.343 0.335-0.173 0.075-0.409 0.040-0.879-0.029l-4.247-0.623c-0.222-0.033-0.333-0.049-0.434-0.048-0.1 0.001-0.169 0.008-0.267 0.028s-0.225 0.068-0.477 0.163c-1.178 0.441-2.454 0.683-3.787 0.683-0.558 0-1.105-0.042-1.64-0.124M10.175 29.333c3.953 0 7.158-3.283 7.158-7.333s-3.205-7.333-7.158-7.333c-3.953 0-7.158 3.283-7.158 7.333 0 0.814 0.13 1.597 0.369 2.329 0.101 0.309 0.152 0.464 0.168 0.57 0.017 0.11 0.020 0.172 0.014 0.284-0.006 0.107-0.033 0.227-0.086 0.469l-0.815 3.682 3.993-0.545c0.218-0.030 0.327-0.045 0.422-0.044 0.1 0.001 0.153 0.006 0.252 0.026 0.093 0.019 0.232 0.067 0.51 0.165 0.731 0.258 1.516 0.398 2.332 0.398z"></path>
</symbol>
<symbol id="icon-user" viewBox="0 0 32 32">
<path fill="none" stroke="#fafafa" style="stroke: var(--color1, #fafafa)" stroke-linejoin="round" stroke-linecap="round" stroke-miterlimit="4" stroke-width="2.6667" d="M26.667 28c0-1.861 0-2.791-0.23-3.548-0.517-1.705-1.851-3.039-3.556-3.556-0.757-0.23-1.687-0.23-3.548-0.23h-6.667c-1.861 0-2.791 0-3.548 0.23-1.705 0.517-3.038 1.851-3.556 3.556-0.23 0.757-0.23 1.687-0.23 3.548"></path>
<path fill="none" stroke="#fafafa" style="stroke: var(--color1, #fafafa)" stroke-linejoin="round" stroke-linecap="round" stroke-miterlimit="4" stroke-width="2.6667" d="M16 16c3.314 0 6-2.686 6-6s-2.686-6-6-6c-3.314 0-6 2.686-6 6s2.686 6 6 6z"></path>
</symbol>
<symbol id="icon-close" viewBox="0 0 32 32">
<path fill="none" stroke="#fafafa" style="stroke: var(--color1, #fafafa)" stroke-linejoin="round" stroke-linecap="round" stroke-miterlimit="4" stroke-width="2.6667" d="M24 8l-16 16"></path>
<path fill="none" stroke="#fafafa" style="stroke: var(--color1, #fafafa)" stroke-linejoin="round" stroke-linecap="round" stroke-miterlimit="4" stroke-width="2.6667" d="M8 8l16 16"></path>
</symbol>
</defs>
</svg>
